<?xml version="1.0" standalone="no"?>
<!DOCTYPE svg PUBLIC "-//W3C//DTD SVG 20010904//EN"
 "http://www.w3.org/TR/2001/REC-SVG-20010904/DTD/svg10.dtd">
<svg version="1.0" xmlns="http://www.w3.org/2000/svg"
 width="256.000000pt" height="256.000000pt" viewBox="0 0 256.000000 256.000000"
 preserveAspectRatio="xMidYMid meet">
<metadata>
Created by potrace 1.13, written by Peter Selinger 2001-2015
</metadata>
<g transform="translate(0.000000,256.000000) scale(0.100000,-0.100000)"
fill="#000000" stroke="none">
<path d="M2128 2319 c36 -42 26 -55 -38 -51 -9 0 -6 -7 10 -19 50 -38 52 -41
41 -52 -7 -7 -14 -7 -23 0 -9 8 -17 7 -28 -5 -13 -14 -12 -15 5 -9 18 6 18 5
4 -5 -12 -10 -17 -39 -22 -113 -9 -150 -43 -232 -132 -313 -51 -48 -73 -57
-115 -53 -12 1 -12 0 -2 -7 7 -5 25 -7 38 -4 l25 5 -24 -27 c-28 -30 -35 -32
-33 -11 0 8 -15 25 -34 37 -33 20 -34 20 -15 1 12 -11 27 -23 35 -26 10 -3 7
-6 -7 -6 -13 -1 -23 -6 -23 -12 0 -5 4 -7 10 -4 5 3 7 0 4 -8 -5 -15 -34 -19
-34 -5 0 5 5 19 11 31 9 20 9 20 -4 5 -14 -18 -29 -24 -25 -10 3 8 -5 12 -23
12 -6 0 -1 -8 12 -19 20 -16 21 -21 10 -35 -8 -9 -21 -15 -30 -14 -9 2 -15 -3
-14 -12 2 -13 -11 -15 -75 -14 -89 2 -210 12 -220 18 -4 2 -41 7 -82 11 -41 3
-87 8 -101 11 -26 5 -26 3 -28 -46 0 -31 3 -49 9 -45 6 3 7 -1 4 -9 -8 -22 13
-20 25 2 9 15 10 15 11 -5 0 -17 -5 -21 -24 -19 -30 4 -42 -19 -18 -33 16 -10
16 -10 -1 -11 -10 0 -15 -5 -12 -11 4 -6 14 -8 24 -5 12 5 11 2 -4 -11 -20
-18 -31 -73 -13 -73 5 0 6 -5 3 -10 -17 -28 -25 15 -26 148 -1 94 -4 133 -9
107 l-7 -40 -2 36 c-1 48 -14 57 -86 60 -33 1 -66 7 -74 13 -12 9 -13 7 -7 -9
6 -16 5 -18 -5 -7 -7 6 -31 11 -54 11 -22 -1 -32 -3 -23 -6 10 -2 18 -8 18
-13 0 -5 11 -8 24 -7 14 1 25 -2 25 -8 0 -5 -8 -9 -17 -7 -13 2 -14 1 -3 -6
10 -7 10 -11 1 -17 -7 -4 -15 -4 -19 1 -8 12 -42 14 -35 3 3 -5 12 -9 20 -9 8
0 13 -4 10 -9 -3 -4 6 -6 19 -3 14 2 25 9 25 14 0 5 7 16 15 24 13 14 15 13
15 -5 0 -11 -4 -22 -9 -26 -6 -3 -8 -19 -6 -35 2 -17 0 -28 -5 -25 -5 3 -7 12
-4 19 7 19 -24 28 -46 13 -22 -16 -11 -40 16 -35 11 2 20 -4 22 -14 2 -12 -3
-18 -13 -18 -14 0 -15 -3 -5 -15 9 -10 9 -15 1 -15 -11 0 -15 13 -12 37 1 8
-5 10 -14 7 -9 -4 -13 -9 -11 -12 6 -6 -24 -31 -38 -32 -5 0 -3 7 4 15 7 9 10
18 6 22 -13 14 -44 12 -50 -2 -4 -12 1 -14 22 -10 27 5 27 5 -3 -9 -30 -15
-30 -15 -5 -16 14 -1 19 -4 13 -7 -7 -2 -13 -11 -13 -19 0 -8 -4 -14 -10 -14
-5 0 -10 7 -10 15 0 18 -38 14 -54 -6 -21 -26 -117 -16 -101 12 4 5 2 9 -4 9
-5 0 -13 -4 -16 -10 -3 -5 -15 -10 -26 -10 -18 0 -19 8 -19 125 0 81 -4 125
-11 125 -5 0 -15 14 -21 32 -10 28 -12 29 -24 14 -9 -13 -20 -16 -36 -11 -21
6 -21 5 4 -12 26 -18 26 -19 8 -31 -10 -6 -20 -8 -22 -3 -2 5 -12 5 -23 0 -18
-7 -18 -8 5 -9 24 -1 24 -1 6 -15 -11 -8 -15 -15 -9 -15 7 0 18 7 27 15 22 23
31 18 31 -17 0 -36 -10 -49 -32 -41 -12 5 -12 7 -1 14 9 6 9 9 1 9 -18 0 -27
-21 -12 -31 10 -6 6 -10 -13 -18 -15 -6 -37 -20 -50 -33 l-22 -22 -11 28 c-11
26 -12 27 -17 8 -4 -12 0 -26 8 -33 17 -14 18 -29 3 -29 -5 0 -8 4 -5 9 3 5
-1 14 -9 21 -11 9 -15 9 -15 1 0 -8 -6 -8 -21 3 -19 13 -23 12 -41 -6 -11 -11
-23 -17 -26 -13 -4 3 0 10 8 15 8 5 12 11 9 14 -3 3 -15 -3 -27 -14 -26 -25
-32 -25 -32 -2 0 12 -3 13 -8 5 -6 -9 -22 -10 -62 -4 -30 5 -58 7 -61 5 -11
-6 -19 54 -20 150 -2 161 -17 151 -18 -11 -1 -96 3 -153 9 -153 6 0 10 -12 10
-26 0 -14 -4 -23 -10 -19 -6 4 -10 -47 -10 -144 0 -94 4 -151 10 -151 6 0 10
-7 10 -16 0 -13 3 -14 14 -5 9 7 22 8 37 3 13 -5 54 -15 92 -22 55 -10 70 -10
83 1 13 11 17 10 25 -4 12 -20 34 -26 283 -78 l200 -42 18 23 c18 22 18 22 18
1 0 -24 20 -36 73 -46 21 -4 36 -9 34 -12 -4 -4 -135 17 -207 33 -14 3 -22 2
-18 -1 4 -4 29 -12 55 -17 107 -22 121 -27 63 -22 -30 2 -68 6 -85 9 -16 3
-41 7 -55 9 -14 2 -31 -1 -39 -8 -12 -8 -13 -8 -7 2 7 11 4 13 -36 16 -8 1
-13 -16 -14 -46 -2 -39 1 -46 15 -42 14 5 14 4 -1 -6 -9 -6 -15 -17 -12 -25 4
-8 1 -15 -5 -15 -8 0 -11 24 -9 78 3 86 -5 80 88 67 23 -4 30 -2 20 3 -29 18
-100 21 -114 6 -18 -18 -26 -18 -26 1 0 8 -8 18 -18 24 -20 11 -184 42 -190
36 -2 -2 25 -9 60 -17 36 -7 54 -14 41 -16 -13 -2 -23 -7 -23 -12 0 -11 -42 1
-58 17 -8 7 -17 11 -22 8 -5 -3 -19 -1 -33 4 -22 8 -24 7 -20 -10 3 -10 10
-19 15 -19 5 0 6 5 3 10 -4 7 3 8 22 4 38 -9 37 -8 25 -54 -5 -22 -6 -37 -1
-34 5 3 9 1 9 -4 0 -14 -28 -23 -34 -11 -2 5 -3 4 -2 -3 2 -7 12 -12 22 -11
18 1 18 1 1 -12 -13 -10 -15 -14 -5 -18 10 -4 10 -6 0 -6 -7 -1 -15 6 -18 14
-5 12 -9 13 -21 3 -12 -10 -11 -13 8 -24 22 -11 22 -11 -4 -11 -15 0 -24 3
-21 8 3 5 1 9 -5 9 -5 0 -15 -8 -20 -17 -8 -13 -13 -15 -18 -6 -12 17 -60 27
-67 14 -4 -6 -12 -11 -17 -11 -6 0 -8 4 -5 8 2 4 1 14 -5 22 -7 12 -9 10 -9
-8 0 -19 -2 -21 -14 -10 -10 9 -11 17 -4 26 8 9 7 11 -6 6 -9 -3 -16 -15 -16
-26 0 -10 4 -17 8 -14 5 3 9 -1 9 -9 0 -12 -3 -12 -14 -3 -11 9 -16 9 -22 -1
-13 -20 -17 12 -20 138 -2 86 1 116 11 122 9 6 7 9 -9 9 -23 0 -23 -1 -23
-149 0 -110 3 -151 13 -154 9 -3 9 -9 -1 -26 -8 -14 -12 -68 -12 -169 l0 -149
98 -27 c54 -14 108 -26 120 -26 15 0 20 -5 16 -15 -9 -22 5 -38 22 -24 7 6 11
16 7 22 -4 6 -1 7 8 1 8 -4 23 -10 34 -11 17 -3 249 -66 401 -109 37 -11 51
-19 50 -31 0 -10 7 -19 17 -21 11 -2 17 3 17 13 0 11 6 15 18 11 25 -8 256
-69 399 -107 67 -17 121 -36 120 -42 -2 -10 199 -66 241 -67 13 0 22 -6 22
-15 0 -11 11 -15 39 -15 30 0 42 6 54 23 15 24 179 97 216 97 10 0 37 14 59
30 23 17 44 30 48 30 3 0 26 17 52 38 26 20 54 42 63 47 9 6 46 35 83 65 67
55 67 55 63 100 -2 25 -15 67 -28 95 -20 42 -33 54 -82 77 -46 23 -61 26 -78
18 -12 -7 -38 -8 -65 -4 -35 5 -49 3 -64 -11 -20 -18 -20 -17 -19 131 1 82 4
139 6 127 6 -31 27 -34 168 -29 91 3 122 8 130 20 6 8 24 18 40 22 58 14 143
72 151 101 3 12 12 27 20 34 8 6 14 20 14 29 0 31 -50 121 -73 131 -12 5 -33
16 -47 24 -40 23 -67 18 -112 -22 -24 -21 -35 -28 -25 -17 9 11 17 24 17 28 0
4 18 28 40 54 47 56 112 192 135 282 13 50 16 96 13 200 -4 119 -8 145 -35
222 -17 48 -45 111 -61 140 -39 67 -119 166 -152 187 -15 9 -4 -7 26 -41 54
-59 69 -96 48 -115 -9 -9 -17 -8 -33 3 -11 8 -26 12 -31 9 -10 -6 -7 -55 4
-85 9 -23 -9 -42 -35 -38 -16 2 -30 15 -41 38 -22 45 -22 50 2 50 26 0 26 25
-1 44 -16 11 -22 25 -22 58 0 24 4 51 8 61 6 14 -1 27 -26 50 -20 20 -25 22
-11 6z m248 -309 c14 0 22 4 19 10 -3 6 -2 10 3 10 22 0 72 -164 72 -236 0
-76 -13 -106 -43 -98 -17 4 -26 1 -31 -11 -3 -9 -10 -14 -16 -10 -5 3 -17 1
-27 -4 -10 -5 -30 -12 -46 -16 -24 -5 -26 -9 -21 -33 5 -22 4 -25 -7 -14 -25
23 -30 12 -8 -18 28 -37 46 -44 72 -25 12 8 26 15 32 15 5 0 -5 -9 -23 -20
-42 -26 -58 -20 -99 32 -27 33 -33 49 -33 88 0 27 -4 51 -9 54 -11 7 -3 81 15
124 7 18 11 46 8 61 -3 16 -1 32 5 35 5 4 8 13 4 21 -3 9 1 15 8 15 8 0 27 16
43 36 l29 37 14 -27 c9 -18 22 -26 39 -26z m-2011 -570 c176 -33 206 -35 222
-19 8 8 14 6 22 -9 7 -14 28 -23 68 -30 32 -6 144 -27 250 -46 131 -24 200
-33 215 -27 16 6 27 4 35 -4 6 -7 40 -18 75 -24 35 -6 77 -16 93 -21 26 -9 24
-9 -15 -4 -51 7 -48 6 -270 44 -114 20 -168 26 -177 18 -7 -5 -14 -41 -16 -81
l-3 -72 -2 78 -2 78 -36 15 c-20 8 -39 13 -42 10 -2 -3 3 -8 12 -12 9 -3 16
-11 16 -16 0 -7 -4 -7 -12 0 -7 6 -24 10 -38 10 -14 0 -49 3 -79 7 -40 6 -52
5 -47 -4 4 -7 17 -9 29 -6 19 5 20 5 5 -5 -10 -6 -18 -17 -18 -25 0 -8 -9 -19
-20 -25 -19 -10 -26 -60 -8 -60 4 0 8 -4 8 -10 0 -5 -11 -9 -25 -8 -27 2 -33
13 -12 21 8 3 7 7 -5 12 -20 8 -48 -15 -48 -39 0 -8 -9 -18 -20 -21 -11 -3
-20 -11 -20 -16 0 -13 14 -11 29 4 11 10 13 9 9 -3 -3 -9 -18 -16 -39 -16 -19
-1 -28 0 -21 3 6 3 12 9 12 14 0 5 -11 4 -26 -1 -17 -7 -31 -7 -42 1 -16 10
-16 10 0 5 10 -3 22 2 27 12 6 10 11 12 11 4 0 -19 57 13 57 32 0 13 -4 12
-19 -4 -20 -22 -38 -26 -38 -9 0 6 -7 3 -16 -5 -19 -19 -44 -21 -45 -3 0 6 -5
-3 -10 -20 -14 -48 -29 -40 -30 15 0 26 -3 80 -5 119 -3 45 0 81 7 95 9 19 9
21 -2 11 -18 -18 -26 -16 -32 6 -5 19 -80 42 -130 40 -28 -1 -16 -5 54 -19
l56 -11 -3 -42 c-3 -23 -5 -75 -7 -116 -2 -74 -2 -74 -30 -75 -16 -1 -32 -8
-37 -16 -6 -8 -10 -11 -10 -6 0 5 8 18 17 29 17 18 17 18 -12 6 -17 -8 -33
-18 -37 -24 -5 -6 -11 -6 -20 3 -9 9 -9 12 0 12 7 0 12 5 12 10 0 6 -11 3 -25
-6 -20 -13 -25 -13 -25 -3 0 11 -2 11 -10 -1 -5 -8 -10 -13 -10 -10 -9 92 -10
259 -2 264 6 4 8 14 5 23 -8 20 19 17 252 -27z m1905 -218 c0 -5 -7 -17 -15
-28 -8 -10 -15 -26 -15 -35 0 -32 -136 -132 -207 -154 -22 -6 -23 -4 -23 64
l0 70 58 11 c31 6 86 26 122 45 69 36 80 40 80 27z m-2024 -446 c54 -14 143
-35 197 -48 53 -12 97 -26 97 -31 0 -5 -8 -6 -17 -3 -94 28 -157 38 -173 28
-14 -9 -19 -8 -24 3 -5 14 -53 31 -117 40 -24 3 -19 0 21 -14 45 -16 50 -19
26 -20 -20 -1 -27 -5 -23 -15 4 -10 1 -13 -8 -10 -8 3 -11 12 -8 20 3 8 -1 14
-10 14 -8 0 -29 3 -46 6 -27 6 -31 4 -28 -14 2 -11 9 -28 17 -37 14 -16 13
-17 -10 -12 -14 4 -19 4 -12 1 6 -3 12 -10 12 -15 0 -6 -4 -7 -10 -4 -5 3 -10
2 -10 -4 0 -5 4 -11 9 -13 5 -1 3 -12 -5 -22 -13 -18 -14 -17 -16 20 -1 21 -3
55 -4 74 -1 20 5 43 15 54 9 11 10 16 4 12 -7 -4 -13 -2 -13 3 0 16 27 14 136
-13z"/>
<path d="M1182 2220 c-13 -22 -37 -28 -27 -7 4 6 -16 -12 -44 -41 -59 -62
-112 -166 -138 -269 -16 -66 -21 -73 -43 -74 -28 -2 110 -27 151 -28 25 -1 25
0 19 57 -6 48 -5 199 2 239 1 7 7 14 15 17 7 3 13 12 13 20 0 8 13 24 29 36
17 11 33 30 36 41 9 28 2 32 -13 9z"/>
<path d="M1156 1885 c-9 -9 -16 -25 -16 -35 0 -10 -4 -22 -10 -25 -5 -3 -10
-12 -10 -19 0 -9 32 -17 103 -25 100 -13 163 -27 182 -43 5 -4 16 -8 25 -7 9
0 6 4 -7 9 -13 5 -23 14 -23 20 0 5 -11 10 -24 10 -38 0 -55 10 -49 28 4 15 3
15 -6 2 -10 -13 -14 -11 -31 10 -11 14 -27 33 -37 43 -19 19 -12 22 20 7 19
-9 18 -8 -2 7 -14 10 -34 18 -45 19 -12 1 -28 4 -37 8 -10 4 -23 1 -33 -9z"/>
</g>
</svg>
