<?xml version="1.0" encoding="UTF-8" standalone="no"?>
<!-- Generator: Adobe Illustrator 16.0.0, SVG Export Plug-In . SVG Version: 6.00 Build 0)  -->

<svg
   xmlns:dc="http://purl.org/dc/elements/1.1/"
   xmlns:cc="http://creativecommons.org/ns#"
   xmlns:rdf="http://www.w3.org/1999/02/22-rdf-syntax-ns#"
   xmlns:svg="http://www.w3.org/2000/svg"
   xmlns="http://www.w3.org/2000/svg"
   xmlns:sodipodi="http://sodipodi.sourceforge.net/DTD/sodipodi-0.dtd"
   xmlns:inkscape="http://www.inkscape.org/namespaces/inkscape"
   version="1.1"
   id="Capa_1"
   x="0px"
   y="0px"
   width="474.521px"
   height="474.521px"
   viewBox="0 0 474.521 474.521"
   style="enable-background:new 0 0 474.521 474.521;"
   xml:space="preserve"
   inkscape:version="0.48.4 r9939"
   sodipodi:docname="shield.svg"><metadata
   id="metadata45"><rdf:RDF><cc:Work
       rdf:about=""><dc:format>image/svg+xml</dc:format><dc:type
         rdf:resource="http://purl.org/dc/dcmitype/StillImage" /></cc:Work></rdf:RDF></metadata><defs
   id="defs43" /><sodipodi:namedview
   pagecolor="#ffffff"
   bordercolor="#666666"
   borderopacity="1"
   objecttolerance="10"
   gridtolerance="10"
   guidetolerance="10"
   inkscape:pageopacity="0"
   inkscape:pageshadow="2"
   inkscape:window-width="1920"
   inkscape:window-height="1001"
   id="namedview41"
   showgrid="false"
   inkscape:zoom="0.49734364"
   inkscape:cx="-299.59165"
   inkscape:cy="237.2605"
   inkscape:window-x="-9"
   inkscape:window-y="-9"
   inkscape:window-maximized="1"
   inkscape:current-layer="Capa_1" />
<g
   id="g3"
   transform="translate(6.1268223e-4,0)">
	<g
   id="g5">
		<path
   d="m 237.263,60.498 c -4.65,3.535 -68.417,50.977 -150.197,67.352 -10.781,188.716 150.095,286.419 150.197,286.363 0.102,0.056 160.979,-97.646 150.198,-286.368 C 305.676,111.475 237.263,60.498 237.263,60.498 z"
   id="path7"
   inkscape:connector-curvature="0" />
		<path
   d="M 440.632,97.439 C 440.306,91.708 436.146,86.922 430.515,85.79 330.787,65.828 245.64,3.124 244.8,2.498 c -4.505,-3.357 -10.69,-3.33 -15.167,0.08 -3.358,2.554 -83.385,62.755 -185.621,83.218 -5.633,1.127 -9.791,5.918 -10.121,11.65 -8.192,143.403 59.091,246.563 116.98,307.845 21.724,23.005 42.109,40.01 55.386,50.221 7.617,5.855 13.769,10.156 17.585,12.733 7.127,4.82 9.178,6.2 13.11,6.271 0.164,0.006 0.325,0.006 0.481,0.006 3.88,0 6.221,-1.565 12.394,-5.702 3.343,-2.244 8.758,-5.98 15.504,-11.084 11.753,-8.872 29.925,-23.641 49.779,-43.63 37.301,-37.549 66.997,-79.36 88.25,-124.264 28.578,-60.361 41.119,-125.094 37.272,-192.403 z M 330.16,359.379 C 291.865,407.4 252.288,436.653 237.263,446.87 222.241,436.653 182.664,407.406 144.354,359.356 84.428,284.192 55.615,199.829 58.641,108.463 144.959,88.969 214.782,43.877 237.329,28.114 c 22.851,15.74 93.877,61.128 178.554,80.342 3.027,91.378 -25.784,175.754 -85.723,250.923 z"
   id="path9"
   inkscape:connector-curvature="0" />
	</g>
</g>
<g
   id="g11">
</g>
<g
   id="g13">
</g>
<g
   id="g15">
</g>
<g
   id="g17">
</g>
<g
   id="g19">
</g>
<g
   id="g21">
</g>
<g
   id="g23">
</g>
<g
   id="g25">
</g>
<g
   id="g27">
</g>
<g
   id="g29">
</g>
<g
   id="g31">
</g>
<g
   id="g33">
</g>
<g
   id="g35">
</g>
<g
   id="g37">
</g>
<g
   id="g39">
</g>
</svg>